<svg width="200" height="200" viewBox="0 0 200 200" fill="none" xmlns="http://www.w3.org/2000/svg">
  <rect width="200" height="200" rx="20" fill="#E5E7EB"/>
  <path
    d="M100 60C83.4315 60 70 73.4315 70 90C70 106.569 83.4315 120 100 120C116.569 120 130 106.569 130 90C130 73.4315 116.569 60 100 60ZM100 80C105.523 80 110 84.4772 110 90C110 95.5228 105.523 100 100 100C94.4772 100 90 95.5228 90 90C90 84.4772 94.4772 80 100 80Z"
    fill="#9CA3AF"
  />
  <path
    d="M60 140V150C60 155.523 64.4772 160 70 160H130C135.523 160 140 155.523 140 150V140H60Z"
    fill="#9CA3AF"
  />
</svg> 