<svg width="36" height="36" viewBox="0 0 36 36" fill="none" xmlns="http://www.w3.org/2000/svg">
<path d="M24.9092 9C23.629 8.99872 22.363 9.2657 21.1946 9.78338C20.0262 10.3011 18.9817 11.0577 18.13 12.0036C18.0569 12.076 17.9325 12.076 17.8667 12.0036C16.6396 10.6452 15.0245 9.68767 13.2354 9.25766C11.4463 8.82765 9.56738 8.94546 7.84739 9.59548C6.12739 10.2455 4.64738 11.3971 3.60323 12.8979C2.55907 14.3986 2 16.1778 2 18C2 19.8221 2.55907 21.6013 3.60323 23.102C4.64738 24.6028 6.12739 25.7544 7.84739 26.4044C9.56738 27.0545 11.4463 27.1723 13.2354 26.7423C15.0245 26.3123 16.6396 25.3547 17.8667 23.9964C17.9398 23.9095 18.0569 23.9095 18.13 23.9964C19.1404 25.116 20.418 25.9677 21.8461 26.4737C23.2743 26.9796 24.8077 27.1238 26.3066 26.8932C27.8055 26.6625 29.2222 26.0642 30.4277 25.1529C31.6332 24.2416 32.5891 23.0463 33.2082 21.6758C33.8274 20.3053 34.0902 18.8032 33.9727 17.3065C33.8551 15.8097 33.361 14.3659 32.5353 13.1065C31.7095 11.8472 30.5785 10.8123 29.2452 10.0963C27.912 9.38031 26.4188 9.0059 24.9019 9.0072M24.9019 22.6863C24.2598 22.6806 23.6254 22.5462 23.0372 22.2912C22.4489 22.0362 21.919 21.6659 21.4794 21.2026C21.2453 20.9566 20.9528 20.6092 20.6238 20.3196C20.4726 20.1845 20.3215 20.0591 20.1703 19.9433C19.5356 19.4909 18.7732 19.2476 17.991 19.2476C17.2088 19.2476 16.4465 19.4909 15.8117 19.9433L15.3511 20.3196C15.0293 20.6092 14.7367 20.9566 14.5027 21.2026C14.0633 21.6637 13.5343 22.0322 12.9474 22.2859C12.3605 22.5396 11.7279 22.6734 11.0875 22.6791H10.9704L10.6633 22.6574H10.5901C9.42771 22.5374 8.35148 21.9953 7.56942 21.1357C6.78737 20.2762 6.35502 19.1603 6.35593 18.0036V18.0253V17.9819V18.0036C6.35481 16.848 6.78614 15.733 7.5667 14.8736C8.34726 14.0142 9.42174 13.4714 10.5829 13.3498H10.6633L10.7876 13.3353H10.9778L11.0875 13.328C11.7266 13.3347 12.3579 13.4689 12.9435 13.7226C13.529 13.9763 14.0569 14.3443 14.4954 14.8046C14.7368 15.0506 15.0293 15.398 15.3511 15.6875C15.5022 15.8226 15.6558 15.9481 15.8118 16.0639C16.4465 16.5162 17.2089 16.7595 17.9911 16.7595C18.7733 16.7595 19.5356 16.5162 20.1704 16.0639L20.6238 15.6875C20.9529 15.398 21.2454 15.0506 21.4795 14.8046C21.9189 14.3435 22.4479 13.975 23.0348 13.7213C23.6216 13.4676 24.2542 13.3338 24.8946 13.3281H25.0043L25.1945 13.3354L25.3115 13.3426L25.3992 13.3498C26.5115 13.4679 27.5454 13.9728 28.3168 14.7746C29.0882 15.5765 29.547 16.6232 29.6116 17.7285V17.772L29.619 17.9022V18.2641C29.5558 19.3718 29.0967 20.4212 28.3237 21.2247C27.5507 22.0281 26.5141 22.5334 25.3993 22.6501L25.3115 22.6574L25.1945 22.6719H25.0043L24.9019 22.6863Z" fill="url(#paint0_linear_381_223)"/>
<defs>
<linearGradient id="paint0_linear_381_223" x1="5.27352" y1="8.14593" x2="31.6337" y2="28.8645" gradientUnits="userSpaceOnUse">
<stop stop-color="#0082FF"/>
<stop offset="0.42" stop-color="#0A96FF"/>
<stop offset="0.56" stop-color="#05BCFF"/>
<stop offset="0.76" stop-color="#00F0FF"/>
<stop offset="0.79" stop-color="#04F0FC"/>
<stop offset="0.82" stop-color="#10F1F5"/>
<stop offset="0.85" stop-color="#24F4E8"/>
<stop offset="0.89" stop-color="#40F7D7"/>
<stop offset="0.92" stop-color="#64FBC1"/>
<stop offset="0.94" stop-color="#82FFB0"/>
</linearGradient>
</defs>
</svg>
